<?xml version="1.0" encoding="UTF-8"?>
<svg id="Livello_1" xmlns="http://www.w3.org/2000/svg" version="1.1" viewBox="0 0 32 32">
  <!-- Generator: Adobe Illustrator 30.3.0, SVG Export Plug-In . SVG Version: 2.1.3 Build 182)  -->
  <defs>
    <style>
      .st0 {
        fill: #7f7f7f;
      }
    </style>
  </defs>
  <path class="st0" d="M16.41,3.84h.54v.82h-.54v3.11h-1.03s0-3.14,0-3.14h-.54v-.77h.54V1.64C8.52,1.93,2.9,7.04,1.83,13.67c.9-2.05,2.94-3.48,5.32-3.48,3.21,0,5.81,2.6,5.81,5.81s-2.6,5.81-5.81,5.81c-2.38,0-4.42-1.43-5.32-3.48,1.11,6.83,7.04,12.04,14.19,12.04s12.97-5.12,14.16-11.86c-.97,2.26-3.22,3.84-5.83,3.84-3.51,0-6.35-2.84-6.35-6.35s2.84-6.35,6.35-6.35c2.62,0,4.86,1.58,5.83,3.84-1.16-6.62-6.86-11.68-13.76-11.87v2.22Z"/>
</svg>